# front face

v 0.5 -0.5 -0.5
vn 0.0 0.0 -1.0
vt 0.0 1.0

v -0.5 -0.5 -0.5
vn 0.0 0.0 -1.0
vt 1.0 0.0

v -0.5 0.5 -0.5
vn 0.0 0.0 -1.0
vt 1.0 1.0

# back face

v -0.5 0.5 0.5
vn 0.0 0.0 1.0
vt 1.0 1.0

v -0.5 -0.5 0.5
vn 0.0 0.0 1.0
vt 1.0 0.0

v 0.5 -0.5 0.5
vn 0.0 0.0 1.0
vt 0.0 1.0

v 0.5 0.5 0.5
vn 0.0 0.0 1.0
vt 0.0 0.0

# left face
v -0.5 0.5 -0.5
vn -1.0 0.0 0.0
vt 0.0 1.0

v -0.5 -0.5 -0.5
vn -1.0 0.0 0.0
vt 1.0 0.0

v -0.5 -0.5 0.5
vn -1.0 0.0 0.0
vt 1.0 0.0

v -0.5 0.5 0.5
vn -1.0 0.0 0.0
vt 1.0 1.0

# right face
v 0.5 0.5 0.5
vn 1.0 0.0 0.0
vt 0.0 0.0

v 0.5 -0.5 0.5
vn 1.0 0.0  0.0
vt 0.0 1.0

v 0.5 -0.5 -0.5
vn 1.0 0.0 0.0
vt 1.0 0.0

v 0.5 0.5 -0.5
vn 1.0 0.0 0.0
vt 1.0 1.0

# top face

v -0.5 0.5 -0.5
vn 0.0 1.0 0.0
vt 1.0 1.0

v -0.5 0.5 0.5
vn 0.0 1.0 0.0
vt 1.0 0.0

v 0.5 0.5 0.5
vn 0.0 1.0  0.0
vt 0.0 1.0

v 0.5 0.5 -0.5
vn 0.0 1.0 0.0
vt 0.0 0.0

# bottom face

v 0.5 -0.5 -0.5
vn 0.0 -1.0 0.0
vt 0.0 0.0

v 0.5 -0.5 0.5
vn 0.0 -1.0  0.0
vt 0.0 1.0

v -0.5 -0.5 0.5
vn 0.0 -1.0 0.0
vt 1.0 0.0

v -0.5 -0.5 -0.5
vn 0.0 -1.0 0.0
vt 1.0 1.0

v 0.5 0.5 -0.5
vn 0.0 0.0 -1.0
vt 0.0 0.0


f -1/-1/-1 1/1/1 2/2/2
f 3/3/3 -1/-1/-1 2/2/2

f 4/4/4 5/5/5 6/6/6
f 7/7/7 4/4/4 6/6/6

f 8/8/8  9/9/9 10/10/10
f 11/11/11 8/8/8 10/10/10

f 12/12/12 13/13/13 14/14/14
f 15/15/15 12/12/12 14/14/14

f 16/16/16 17/17/17 18/18/18
f 19/19/19 16/16/16 18/18/18

f 20/20/20 21/21/21 22/22/22
f 23/23/23 20/20/20 22/22/22
